<?xml version="1.0" encoding="UTF-8"?>
<svg width="1000px" height="300px" viewBox="0 0 1000 300" version="1.1" xmlns="http://www.w3.org/2000/svg" xmlns:xlink="http://www.w3.org/1999/xlink">
    <!-- Generator: Sketch 50.2 (55047) - http://www.bohemiancoding.com/sketch -->
    <title>app</title>
    <desc>Created with Sketch.</desc>
    <defs></defs>
    <g id="Kassor" stroke="none" stroke-width="1" fill="none" fill-rule="evenodd">
        <g id="app">
            <rect id="BG-Copy" fill="#FF3E3E" x="0" y="0" width="1000" height="300" rx="12"></rect>
            <g id="Instabox-Copy" transform="translate(69.000000, 55.000000)" fill="#FFFFFF">
                <polyline id="Fill-16" points="829.059407 112.412774 870 172.951807 825.949735 172.951807 805.997717 142.155834 786.042289 172.951807 744.065139 172.951807 784.746593 112.676003 745.877409 54.5060241 789.670239 54.5060241 807.808282 82.9329428 826.208875 54.5060241 868.18432 54.5060241 829.059407 112.412774"></polyline>
                <path d="M687.920876,85.0232285 C675.544003,85.0232285 668.584662,96.50305 668.584662,112.681581 C668.584662,128.860112 675.544003,140.07899 687.920876,140.07899 C700.552173,140.07899 707.51321,128.860112 707.51321,112.681581 C707.51321,96.50305 700.552173,85.0232285 687.920876,85.0232285 Z M687.920876,174 C652.857875,174 628.624849,148.951088 628.624849,112.681581 C628.624849,76.4120748 652.857875,51.3614458 687.920876,51.3614458 C723.238301,51.3614458 747.21351,76.4120748 747.21351,112.681581 C747.21351,148.951088 723.238301,174 687.920876,174 Z" id="Fill-14"></path>
                <path d="M540.293679,127.880667 C543.408617,134.432199 550.155942,138.88724 558.204572,138.88724 C572.220085,138.88724 580.524878,127.616882 580.524878,112.419053 C580.524878,97.2212248 572.220085,85.6905297 558.204572,85.6905297 C550.417228,85.6905297 543.408617,90.4059081 540.293679,96.6953782 L540.293679,127.880667 Z M540.293679,171.379387 L499.541616,171.379387 L499.541616,1.04819277 L540.293679,1.04819277 L540.293679,62.8912005 C545.743113,56.6017305 557.164552,50.8363829 569.105147,50.8363829 C602.850308,50.8363829 621.278649,78.3528145 621.278649,112.419053 C621.278649,146.485292 602.850308,174 569.105147,174 C557.164552,174 545.743113,168.234652 540.293679,161.946906 L540.293679,171.379387 Z" id="Fill-13"></path>
                <path d="M442.645284,132.073969 C440.060525,127.093119 433.592671,123.950132 426.35058,123.950132 C418.334253,123.950132 410.314523,127.355179 410.314523,135.216956 C410.314523,143.340792 418.334253,146.745839 426.35058,146.745839 C433.592671,146.745839 440.060525,143.602852 442.645284,138.885785 L442.645284,132.073969 Z M442.645284,100.888919 C442.645284,91.7168454 434.370311,85.1670883 417.816961,85.1670883 C406.695179,85.1670883 395.316453,88.04974 386.003492,93.5512601 L386.003492,60.5352434 C395.575099,55.2940585 411.092163,51.3614458 427.643811,51.3614458 C462.04204,51.3614458 481.700844,67.8711782 481.700844,99.0545042 L481.700844,171.903526 L442.645284,171.903526 L442.645284,165.876163 C438.767295,169.807052 427.643811,174 415.2305,174 C392.212699,174 372.557298,160.897038 372.557298,136.003134 C372.557298,113.203979 392.212699,98.5321098 417.297967,98.5321098 C427.12822,98.5321098 437.989655,101.675097 442.645284,105.081867 L442.645284,100.888919 Z" id="Fill-11"></path>
                <polyline id="Fill-10" points="348.847838 172.951807 308.682531 172.951807 308.682531 86.7017521 288.600724 86.7017521 288.600724 54.6207385 308.682531 54.6207385 308.682531 22.0120482 348.847838 22.0120482 348.847838 54.6207385 371.507841 54.6207385 371.507841 86.7017521 348.847838 86.7017521 348.847838 172.951807"></polyline>
                <path d="M190.468181,128.336508 C201.533368,137.469549 219.550912,143.210319 231.389899,143.210319 C239.366654,143.210319 244.512347,141.38371 244.512347,136.166546 C244.512347,131.467836 240.91087,129.642945 233.961899,128.07728 L224.953974,125.728784 C203.594015,121.030074 189.951749,110.854973 189.951749,89.7185047 C189.951749,65.1914805 210.026554,51.3614458 237.306007,51.3614458 C253.779335,51.3614458 266.388737,54.7554352 277.711293,61.7992079 L277.711293,95.4609906 C266.646107,87.371725 254.294074,81.8901831 241.168239,81.8901831 C234.220962,81.8901831 229.586621,84.2403963 229.586621,88.9373893 C229.586621,93.3717214 232.930729,94.9373857 238.592853,96.50305 L249.144994,99.6343787 C274.368879,106.418924 284.402895,116.856686 284.402895,136.686717 C284.402895,161.73563 263.041243,174 234.474944,174 C218.264065,174 201.279385,170.085839 190.468181,162.781123 L190.468181,128.336508" id="Fill-8"></path>
                <path d="M62.9674306,53.9837642 L103.686369,53.9837642 L103.686369,64.2040823 C110.172526,56.866418 121.583453,51.3614458 135.071111,51.3614458 C161.008915,51.3614458 176.308806,68.3953092 176.308806,94.5995288 L176.308806,171.903614 L135.847539,171.903614 L135.847539,104.557787 C135.847539,94.8633123 130.922769,87.7859834 120.547648,87.7859834 C112.505222,87.7859834 105.761393,92.5047774 103.686369,100.626896 L103.686369,171.903614 L62.9674306,171.903614 L62.9674306,53.9837642" id="Fill-6"></path>
                <path d="M2.59425969,171.903614 L43.3190166,171.903614 L43.3190166,54.1624032 L2.59425969,54.1624032 L2.59425969,171.903614 Z M23.0872045,44.2175091 C10.6330512,44.2175091 0,35.5843701 0,22.2413072 C0,8.63486045 10.6330512,0 23.0872045,0 C35.5379443,0 46.1761158,8.63486045 46.1761158,22.2413072 C46.1761158,35.5843701 35.5379443,44.2175091 23.0872045,44.2175091 Z" id="Fill-5"></path>
            </g>
        </g>
    </g>
</svg>